<svg width="17" height="18" viewBox="0 0 17 18" fill="none" xmlns="http://www.w3.org/2000/svg">
<path d="M4.2851 9V13.0898C4.2851 13.1698 4.31721 13.2472 4.37519 13.3024C6.71301 15.5283 10.2869 15.5283 12.6248 13.3024C12.6827 13.2472 12.7148 13.1698 12.7148 13.0898V9" stroke="#292A2F"/>
<path d="M15.2438 7.50054H15.9524V11.9161H15.2438V7.50054Z" fill="#292A2F"/>
<path d="M7.49688 2.94354L1.41665 5.98995C0.777626 6.31013 0.777626 7.26316 1.41665 7.58333L7.49688 10.6297C8.21604 10.9901 9.05528 10.9741 9.76144 10.5866L15.2605 7.56894C15.8629 7.23835 15.8629 6.33494 15.2605 6.00435L9.76144 2.98674C9.05528 2.59923 8.21604 2.58322 7.49688 2.94354Z" stroke="#130F26"/>
<path d="M16.424 11.2078C16.424 11.6955 16.0466 12.0909 15.581 12.0909C15.1154 12.0909 14.738 11.6955 14.738 11.2078C14.738 10.7201 15.1154 10.3247 15.581 10.3247C16.0466 10.3247 16.424 10.7201 16.424 11.2078Z" fill="#130F26"/>
</svg>
