<svg width="14" height="13" viewBox="0 0 14 13" fill="none" xmlns="http://www.w3.org/2000/svg">
<path d="M5.89342 10.167H1.30872" stroke="#292A2F" stroke-linecap="round" stroke-linejoin="round"/>
<path fill-rule="evenodd" clip-rule="evenodd" d="M8.7702 10.1676C8.7702 11.6139 9.2525 12.0956 10.6981 12.0956C12.1438 12.0956 12.6261 11.6139 12.6261 10.1676C12.6261 8.72137 12.1438 8.2397 10.6981 8.2397C9.2525 8.2397 8.7702 8.72137 8.7702 10.1676Z" stroke="#292A2F" stroke-linecap="round" stroke-linejoin="round"/>
<path d="M8.04175 2.73755H12.6258" stroke="#292A2F" stroke-linecap="round" stroke-linejoin="round"/>
<path fill-rule="evenodd" clip-rule="evenodd" d="M5.16497 2.7366C5.16497 1.29096 4.68267 0.808662 3.23704 0.808662C1.79077 0.808662 1.30847 1.29096 1.30847 2.7366C1.30847 4.18286 1.79077 4.66453 3.23704 4.66453C4.68267 4.66453 5.16497 4.18286 5.16497 2.7366Z" stroke="#292A2F" stroke-linecap="round" stroke-linejoin="round"/>
</svg>
