<svg width="11" height="14" viewBox="0 0 11 14" fill="none" xmlns="http://www.w3.org/2000/svg">
<path fill-rule="evenodd" clip-rule="evenodd" d="M5.40678 12.7909C3.19406 12.7909 1.30444 12.4466 1.30444 11.0676C1.30444 9.68862 3.18207 8.41562 5.40678 8.41562C7.61951 8.41562 9.50912 9.67629 9.50912 11.0553C9.50912 12.4337 7.63149 12.7909 5.40678 12.7909Z" stroke="#292A2F" stroke-linecap="round" stroke-linejoin="round"/>
<path fill-rule="evenodd" clip-rule="evenodd" d="M5.40245 6.50471C6.85454 6.50471 8.03146 5.32779 8.03146 3.87571C8.03146 2.42362 6.85454 1.24615 5.40245 1.24615C3.95037 1.24615 2.7729 2.42362 2.7729 3.87571C2.768 5.32289 3.93675 6.49981 5.38393 6.50471C5.39047 6.50471 5.39646 6.50471 5.40245 6.50471Z" stroke="#292A2F" stroke-linecap="round" stroke-linejoin="round"/>
</svg>
