<svg width="15" height="16" viewBox="0 0 15 16" fill="none" xmlns="http://www.w3.org/2000/svg">
<path fill-rule="evenodd" clip-rule="evenodd" d="M2.89255 3.39254C2.084 4.20109 1.67144 5.58165 1.67144 7.99999C1.67144 10.4183 2.084 11.7989 2.89255 12.6075C3.7011 13.416 5.08167 13.8286 7.50001 13.8286C9.91835 13.8286 11.2989 13.416 12.1075 12.6075C12.916 11.7989 13.3286 10.4183 13.3286 7.99999C13.3286 5.58165 12.916 4.20109 12.1075 3.39254C11.2989 2.58399 9.91835 2.17142 7.50001 2.17142C5.08167 2.17142 3.7011 2.58399 2.89255 3.39254ZM1.8622 2.36218C3.10284 1.12153 5.00085 0.714279 7.50001 0.714279C9.99917 0.714279 11.8972 1.12153 13.1378 2.36218C14.3785 3.60283 14.7857 5.50083 14.7857 7.99999C14.7857 10.4992 14.3785 12.3972 13.1378 13.6378C11.8972 14.8785 9.99917 15.2857 7.50001 15.2857C5.00085 15.2857 3.10284 14.8785 1.8622 13.6378C0.62155 12.3972 0.214294 10.4992 0.214294 7.99999C0.214294 5.50083 0.62155 3.60283 1.8622 2.36218ZM7.50001 3.91806C7.90239 3.91806 8.22858 4.24425 8.22858 4.64663V11.3122C8.22858 11.7146 7.90239 12.0408 7.50001 12.0408C7.09763 12.0408 6.77144 11.7146 6.77144 11.3122V4.64663C6.77144 4.24425 7.09763 3.91806 7.50001 3.91806ZM4.4333 6.07548C4.83568 6.07548 5.16187 6.40167 5.16187 6.80405V11.3118C5.16187 11.7142 4.83568 12.0404 4.4333 12.0404C4.03092 12.0404 3.70473 11.7142 3.70473 11.3118V6.80405C3.70473 6.40167 4.03092 6.07548 4.4333 6.07548ZM10.5162 8.45759C10.9186 8.45759 11.2448 8.78378 11.2448 9.18616V11.3121C11.2448 11.7145 10.9186 12.0407 10.5162 12.0407C10.1139 12.0407 9.78766 11.7145 9.78766 11.3121V9.18616C9.78766 8.78378 10.1139 8.45759 10.5162 8.45759Z" fill="#292A2F"/>
</svg>
