<svg width="15" height="14" viewBox="0 0 15 14" fill="none" xmlns="http://www.w3.org/2000/svg">
<path fill-rule="evenodd" clip-rule="evenodd" d="M7.49998 0.928558C6.12639 0.928558 5.99653 3.32105 5.17875 4.16637C4.36098 5.01168 1.81861 4.04517 1.46538 5.54556C1.11289 7.04672 3.39999 7.55606 3.68198 8.84397C3.96545 10.1319 2.56811 11.9414 3.76212 12.8419C4.95613 13.7417 6.24141 11.7051 7.49998 11.7051C8.75855 11.7051 10.0438 13.7417 11.2378 12.8419C12.4318 11.9414 11.0353 10.1319 11.318 8.84397C11.6007 7.55606 13.8871 7.04672 13.5346 5.54556C13.1821 4.04517 10.639 5.01168 9.82195 4.16637C9.00418 3.32105 8.87357 0.928558 7.49998 0.928558Z" stroke="#292A2F" stroke-linecap="round" stroke-linejoin="round"/>
</svg>
