<svg width="14" height="14" viewBox="0 0 14 14" fill="none" xmlns="http://www.w3.org/2000/svg">
<path d="M7.02763 9.56459V7.9209" stroke="#292A2F" stroke-linecap="round" stroke-linejoin="round"/>
<path d="M12.737 6.41287L12.7189 6.42601C11.204 7.35918 9.20384 7.92271 7.02477 7.92271C4.84569 7.92271 2.85113 7.35918 1.33691 6.42601L1.31815 6.41287" stroke="#292A2F" stroke-linecap="round" stroke-linejoin="round"/>
<path fill-rule="evenodd" clip-rule="evenodd" d="M1.26666 7.58435C1.26666 3.73657 2.70708 2.45377 7.0277 2.45377C11.3489 2.45377 12.7887 3.73657 12.7887 7.58435C12.7887 11.4321 11.3489 12.7149 7.0277 12.7149C2.70708 12.7149 1.26666 11.4321 1.26666 7.58435Z" stroke="#292A2F" stroke-linecap="round" stroke-linejoin="round"/>
<path d="M9.06829 2.59236V2.19832C9.06829 1.40775 8.49099 0.766663 7.77986 0.766663H6.27564C5.56451 0.766663 4.98721 1.40775 4.98721 2.19832V2.59236" stroke="#292A2F" stroke-linecap="round" stroke-linejoin="round"/>
</svg>
